# Blender v2.82 (sub 7) OBJ File: 'barrel.blend'
# www.blender.org
mtllib barrel.mtl
o Barrel_Cylinder.001
v 0.000000 0.121781 -0.400000
v 0.000000 1.121781 -0.400000
v 0.200000 0.121781 -0.346410
v 0.200000 1.121781 -0.346410
v 0.346410 0.121781 -0.200000
v 0.346410 1.121781 -0.200000
v 0.400000 0.121781 0.000000
v 0.400000 1.121781 0.000000
v 0.346410 0.121781 0.200000
v 0.346410 1.121781 0.200000
v 0.200000 0.121781 0.346410
v 0.200000 1.121781 0.346410
v 0.000000 0.121781 0.400000
v 0.000000 1.121781 0.400000
v -0.200000 0.121781 0.346410
v -0.200000 1.121781 0.346410
v -0.346410 0.121781 0.200000
v -0.346410 1.121781 0.200000
v -0.400000 0.121781 0.000000
v -0.400000 1.121781 0.000000
v -0.346410 0.121781 -0.200000
v -0.346410 1.121781 -0.200000
v -0.200000 0.121781 -0.346410
v -0.200000 1.121781 -0.346410
v 0.000000 0.413449 -0.470485
v 0.000000 0.805520 -0.470485
v 0.235242 0.805520 -0.407452
v 0.235242 0.413449 -0.407452
v 0.407452 0.805520 -0.235242
v 0.407452 0.413449 -0.235242
v 0.470485 0.805520 0.000000
v 0.470485 0.413449 0.000000
v 0.407452 0.805520 0.235242
v 0.407452 0.413449 0.235242
v 0.235242 0.805520 0.407452
v 0.235242 0.413449 0.407452
v 0.000000 0.805520 0.470485
v 0.000000 0.413449 0.470485
v -0.235242 0.805520 0.407452
v -0.235242 0.413449 0.407452
v -0.407451 0.805520 0.235242
v -0.407451 0.413449 0.235242
v -0.470485 0.805520 0.000000
v -0.470485 0.413449 0.000000
v -0.407452 0.805520 -0.235242
v -0.407452 0.413449 -0.235242
v -0.235243 0.805520 -0.407451
v -0.235243 0.413449 -0.407451
vt 1.000000 1.000000
vt 0.916667 0.843537
vt 1.000000 0.843537
vt 0.916667 1.000000
vt 0.833333 0.843537
vt 0.833333 1.000000
vt 0.750000 0.843537
vt 0.750000 1.000000
vt 0.666667 0.843537
vt 0.666667 1.000000
vt 0.583333 0.843537
vt 0.583333 1.000000
vt 0.500000 0.843537
vt 0.500000 1.000000
vt 0.416667 0.843537
vt 0.416667 1.000000
vt 0.333333 0.843537
vt 0.333333 1.000000
vt 0.250000 0.843537
vt 0.250000 1.000000
vt 0.166667 0.843537
vt 0.250000 0.010000
vt 0.457846 0.130000
vt 0.457846 0.370000
vt 0.166667 1.000000
vt 0.083333 0.843537
vt 0.083333 1.000000
vt 0.000000 0.843537
vt 0.990000 0.250000
vt 0.630000 0.042154
vt 0.630000 0.457846
vt 0.083333 0.676871
vt 0.000000 0.500000
vt 0.083333 0.500000
vt 0.000000 0.676871
vt 0.166667 0.676871
vt 0.166667 0.500000
vt 0.250000 0.676871
vt 0.250000 0.500000
vt 0.333333 0.676871
vt 0.333333 0.500000
vt 0.416667 0.676871
vt 0.416667 0.500000
vt 0.500000 0.676871
vt 0.500000 0.500000
vt 0.583333 0.500000
vt 0.583333 0.676871
vt 0.666667 0.676871
vt 0.666667 0.500000
vt 0.750000 0.676871
vt 0.750000 0.500000
vt 0.833333 0.676871
vt 0.833333 0.500000
vt 0.916667 0.676871
vt 0.916667 0.500000
vt 1.000000 0.676871
vt 1.000000 0.500000
vt 0.370000 0.457846
vt 0.250000 0.490000
vt 0.130000 0.457846
vt 0.042154 0.370000
vt 0.010000 0.250000
vt 0.042154 0.130000
vt 0.130000 0.042154
vt 0.370000 0.042154
vt 0.490000 0.250000
vt 0.000000 1.000000
vt 0.750000 0.490000
vt 0.870000 0.457846
vt 0.957846 0.370000
vt 0.957846 0.130000
vt 0.870000 0.042154
vt 0.750000 0.010000
vt 0.542154 0.130000
vt 0.510000 0.250000
vt 0.542154 0.370000
vn 0.2530 0.2105 -0.9443
vn 0.6913 0.2105 -0.6913
vn 0.9443 0.2105 -0.2530
vn 0.9443 0.2105 0.2530
vn 0.6913 0.2105 0.6913
vn 0.2530 0.2105 0.9443
vn -0.2530 0.2105 0.9443
vn -0.6913 0.2105 0.6913
vn -0.9443 0.2105 0.2530
vn -0.9443 0.2105 -0.2530
vn 0.0000 1.0000 -0.0000
vn -0.6913 0.2105 -0.6913
vn -0.2530 0.2105 -0.9443
vn 0.0000 -1.0000 -0.0000
vn -0.2520 -0.2273 -0.9406
vn -0.2588 0.0000 -0.9659
vn -0.6886 -0.2273 -0.6886
vn -0.7071 0.0000 -0.7071
vn -0.9406 -0.2273 -0.2520
vn -0.9659 0.0000 -0.2588
vn -0.9406 -0.2273 0.2520
vn -0.9659 0.0000 0.2588
vn -0.6886 -0.2273 0.6886
vn -0.7071 0.0000 0.7071
vn -0.2520 -0.2273 0.9406
vn -0.2588 0.0000 0.9659
vn 0.2520 -0.2273 0.9406
vn 0.2588 0.0000 0.9659
vn 0.6886 -0.2273 0.6886
vn 0.7071 0.0000 0.7071
vn 0.9406 -0.2273 0.2520
vn 0.9659 0.0000 0.2588
vn 0.9406 -0.2273 -0.2520
vn 0.9659 0.0000 -0.2588
vn 0.6886 -0.2273 -0.6886
vn 0.7071 0.0000 -0.7071
vn 0.2520 -0.2273 -0.9406
vn 0.2588 0.0000 -0.9659
usemtl None
s off
f 2/1/1 27/2/1 26/3/1
f 4/4/2 29/5/2 27/2/2
f 6/6/3 31/7/3 29/5/3
f 8/8/4 33/9/4 31/7/4
f 10/10/5 35/11/5 33/9/5
f 12/12/6 37/13/6 35/11/6
f 14/14/7 39/15/7 37/13/7
f 16/16/8 41/17/8 39/15/8
f 18/18/9 43/19/9 41/17/9
f 20/20/10 45/21/10 43/19/10
f 14/22/11 10/23/11 6/24/11
f 22/25/12 47/26/12 45/21/12
f 24/27/13 26/28/13 47/26/13
f 7/29/14 15/30/14 23/31/14
f 48/32/15 1/33/15 23/34/15
f 47/26/16 25/35/16 48/32/16
f 46/36/17 23/34/17 21/37/17
f 45/21/18 48/32/18 46/36/18
f 44/38/19 21/37/19 19/39/19
f 43/19/20 46/36/20 44/38/20
f 42/40/21 19/39/21 17/41/21
f 41/17/22 44/38/22 42/40/22
f 40/42/23 17/41/23 15/43/23
f 39/15/24 42/40/24 40/42/24
f 38/44/25 15/43/25 13/45/25
f 37/13/26 40/42/26 38/44/26
f 11/46/27 38/44/27 13/45/27
f 35/11/28 38/44/28 36/47/28
f 34/48/29 11/46/29 9/49/29
f 33/9/30 36/47/30 34/48/30
f 32/50/31 9/49/31 7/51/31
f 31/7/32 34/48/32 32/50/32
f 30/52/33 7/51/33 5/53/33
f 29/5/34 32/50/34 30/52/34
f 28/54/35 5/53/35 3/55/35
f 27/2/36 30/52/36 28/54/36
f 25/56/37 3/55/37 1/57/37
f 26/3/38 28/54/38 25/56/38
f 2/1/1 4/4/1 27/2/1
f 4/4/2 6/6/2 29/5/2
f 6/6/3 8/8/3 31/7/3
f 8/8/4 10/10/4 33/9/4
f 10/10/5 12/12/5 35/11/5
f 12/12/6 14/14/6 37/13/6
f 14/14/7 16/16/7 39/15/7
f 16/16/8 18/18/8 41/17/8
f 18/18/9 20/20/9 43/19/9
f 20/20/10 22/25/10 45/21/10
f 6/24/11 4/58/11 2/59/11
f 2/59/11 24/60/11 22/61/11
f 22/61/11 20/62/11 18/63/11
f 18/63/11 16/64/11 14/22/11
f 14/22/11 12/65/11 10/23/11
f 10/23/11 8/66/11 6/24/11
f 6/24/11 2/59/11 14/22/11
f 2/59/11 22/61/11 14/22/11
f 22/61/11 18/63/11 14/22/11
f 22/25/12 24/27/12 47/26/12
f 24/27/13 2/67/13 26/28/13
f 23/31/14 1/68/14 3/69/14
f 3/69/14 5/70/14 7/29/14
f 7/29/14 9/71/14 11/72/14
f 11/72/14 13/73/14 7/29/14
f 13/73/14 15/30/14 7/29/14
f 15/30/14 17/74/14 19/75/14
f 19/75/14 21/76/14 23/31/14
f 23/31/14 3/69/14 7/29/14
f 15/30/14 19/75/14 23/31/14
f 48/32/15 25/35/15 1/33/15
f 47/26/16 26/28/16 25/35/16
f 46/36/17 48/32/17 23/34/17
f 45/21/18 47/26/18 48/32/18
f 44/38/19 46/36/19 21/37/19
f 43/19/20 45/21/20 46/36/20
f 42/40/21 44/38/21 19/39/21
f 41/17/22 43/19/22 44/38/22
f 40/42/23 42/40/23 17/41/23
f 39/15/24 41/17/24 42/40/24
f 38/44/25 40/42/25 15/43/25
f 37/13/26 39/15/26 40/42/26
f 11/46/27 36/47/27 38/44/27
f 35/11/28 37/13/28 38/44/28
f 34/48/29 36/47/29 11/46/29
f 33/9/30 35/11/30 36/47/30
f 32/50/31 34/48/31 9/49/31
f 31/7/32 33/9/32 34/48/32
f 30/52/33 32/50/33 7/51/33
f 29/5/34 31/7/34 32/50/34
f 28/54/35 30/52/35 5/53/35
f 27/2/36 29/5/36 30/52/36
f 25/56/37 28/54/37 3/55/37
f 26/3/38 27/2/38 28/54/38
